<svg width="220" height="269" viewBox="0 0 220 269" fill="none" xmlns="http://www.w3.org/2000/svg">
<path d="M220 3.2974C136.518 -0.683035 38.5493 -0.243752 0 0.473444C26.8949 27.9062 78.0847 105.498 100.318 140.865C108.601 182.39 103.769 220.742 100.318 234.728C79.1247 245.593 58.8549 251.178 51.3692 252.613C59.6528 266.921 95.7905 268.795 112.824 267.943C166.748 267.943 169.976 252.613 169.976 252.613C160.293 252.075 133.309 240.465 121.027 234.728C112.824 189.41 118.637 145.437 121.027 140.865C130.306 123.114 209.645 9.34875 220 3.2974Z" fill="black"/>
<path d="M190.416 35.0334H72.4816C63.0146 47.2975 67.1026 74.9275 70.33 87.2095C90.3398 122.065 101.08 130.062 103.949 129.703C108.207 131.855 118.956 133.791 127.885 124.324C134.609 110.07 169.303 57.6251 190.416 35.0334Z" fill="url(#paint0_linear_6_2)" stroke="black"/>
<path d="M217.848 3.96985H32.4083C28.9658 19.3537 40.5664 28.0407 46.797 30.4613L191.088 34.361L217.848 3.96985Z" fill="#80EEF5" fill-opacity="0.5"/>
<path d="M120.086 142.478C115.567 140.972 105.921 141.851 101.663 142.478L102.873 145.571C108.467 144.388 114.169 146.064 116.32 147.05C110.403 145.975 105.249 147.499 103.411 148.395C111.479 176.796 106.773 218.412 103.411 235.669C93.3128 245.459 66.6605 251.313 54.5966 253.016C67.7212 262.483 99.6006 264.671 113.9 264.581C153.381 262.645 166.3 256.064 167.824 253.016C148.137 252.478 126.899 241.227 118.741 235.669C108.736 198.662 115.469 158.122 120.086 142.478Z" fill="#80EEF5" fill-opacity="0.5"/>
<path d="M217.848 3.96985H32.4083C28.9658 19.3537 40.5664 28.0407 46.797 30.4613L191.088 34.361L217.848 3.96985Z" stroke="black"/>
<path d="M120.086 142.478C115.567 140.972 105.921 141.851 101.663 142.478L102.873 145.571C108.467 144.388 114.169 146.064 116.32 147.05C110.403 145.975 105.249 147.499 103.411 148.395C111.479 176.796 106.773 218.412 103.411 235.669C93.3128 245.459 66.6605 251.313 54.5966 253.016C67.7212 262.483 99.6006 264.671 113.9 264.581C153.381 262.645 166.3 256.064 167.824 253.016C148.137 252.478 126.899 241.227 118.741 235.669C108.736 198.662 115.469 158.122 120.086 142.478Z" stroke="black"/>
<path d="M87.186 58.3165C88.1789 59.1506 90.2476 59.7563 91.1578 59.9549V55.1887C88.2286 49.5288 86.4909 42.4788 89.0229 37.6133C93.6402 27.9815 103.024 26.2439 109.379 26.2935C115.734 26.3431 121.89 28.2298 126.309 31.8541C130.727 35.4784 131.968 40.6418 131.571 46.6492C131.174 52.6566 129.238 53.9971 129.188 54.8411C129.148 55.5163 128.973 56.5457 128.89 56.976V60.9975C129.983 60.8485 131.82 60.3521 132.961 58.7633C134.272 56.5788 136.288 56.0327 137.132 56.0327C137.479 55.9168 138.393 55.9433 139.267 56.976C140.141 58.0087 139.962 60.4183 139.763 61.494C140.094 61.7588 140.865 62.5961 141.302 63.8274C142.295 65.9623 141.054 67.7 140.309 68.1468C139.565 68.5936 138.472 68.6433 137.132 68.1468C136.238 67.5014 135.642 67.9979 133.805 68.1468C132.336 68.266 127.07 70.7119 124.621 71.9201V75.0479C126.127 75.8091 129.347 77.4906 130.181 78.1261C131.869 79.4666 133.855 78.7715 135.642 78.1261C137.072 77.6097 138.423 78.3412 138.919 78.7715C139.333 79.1521 140.051 80.2113 139.614 81.4028C139.068 82.8923 137.132 84.7292 136.189 85.2754C136.139 87.1124 136.089 88.9493 134.103 89.7437C132.515 90.3792 130.827 88.8831 130.181 88.0557C129.734 87.5757 128.702 86.5166 128.146 86.1194C127.798 85.6229 121.245 82.5944 119.556 82.1475C118.762 83.3391 115.287 85.2919 113.648 86.1194C113.185 86.3345 111.464 86.735 108.286 86.6159C105.109 86.4967 101.104 83.5873 99.4987 82.1475L91.8032 85.0271C89.867 85.8215 89.4698 86.9424 88.03 88.2543C85.7958 90.2898 84.2567 89.5451 83.4624 88.6018C82.668 87.6585 82.9162 85.8215 82.9162 83.4384C80.1856 81.3035 79.9373 79.5658 79.838 78.6722C79.7586 77.9573 80.6324 77.2158 81.0792 76.9345C82.1881 76.6201 84.7333 76.1799 86.0441 76.9345C87.3548 77.6892 88.5099 77.4806 88.9236 77.282C89.8339 77.1827 92.0018 76.6168 93.392 75.1472C95.0303 74.9486 95.4275 70.9271 94.8318 70.9767C94.3551 71.0165 89.536 68.5109 87.186 67.2531C86.6398 66.9552 85.2199 66.4389 83.9092 66.7567C82.2708 67.1538 80.7814 66.7567 79.3416 66.0119C78.1897 65.4162 78.0673 63.7447 78.15 62.9834C78.2162 62.6193 78.7458 61.5635 80.3345 60.2528C80.3345 58.2271 80.6324 57.2904 80.7814 57.0753C80.9469 56.3968 81.7147 55.1192 83.4624 55.4369C85.6469 55.8341 85.9448 57.2739 87.186 58.3165Z" fill="black" stroke="black"/>
<path d="M127.401 64.2743C125.892 65.7042 124.985 67.7497 124.72 68.5937L132.266 65.7141C132.978 65.3831 134.62 64.7906 135.494 65.0687C138.621 66.1609 138.175 65.7637 138.82 65.0687C139.336 64.5126 137.976 63.0827 137.231 62.4373C137.479 61.9408 137.916 60.7592 137.678 60.0046C137.44 59.2499 136.486 59.326 136.04 59.4584C135.891 59.5081 135.503 59.7861 135.146 60.501C134.789 61.216 133.772 62.2222 133.309 62.6359C132.151 63.0331 129.347 63.9168 127.401 64.2743Z" fill="white" stroke="black"/>
<path d="M83.661 57.9193C82.5488 58.2768 82.6349 59.6901 82.8169 60.3521C82.9038 61.067 82.5222 61.3781 82.3205 61.4443L81.0793 62.4373C81.0462 63 81.2481 64.1253 82.3205 64.1253C83.0751 63.609 84.5546 63.3806 85.2 63.3309C87.4673 64.1915 92.4189 66.1907 94.087 67.3028C93.7395 65.1679 93.0941 64.026 90.711 63.0827C88.8045 62.3281 86.2427 60.5176 85.2 59.7066C84.8856 59.1109 84.1376 57.9193 83.661 57.9193Z" fill="white" stroke="black"/>
<path d="M95.5268 77.5303L88.4272 80.3106C88.0215 80.4694 87.0004 80.2444 86.5405 80.112C85.9282 79.781 84.5645 79.1984 84.0085 79.5162C83.4524 79.8339 83.6113 80.4761 83.7602 80.7574C84.0085 81.0553 84.7135 81.8993 85.5476 82.8923C85.1901 84.6796 85.531 85.5898 85.7462 85.8215C86.044 86.0532 86.8186 86.2882 87.5335 85.3747C87.7718 84.342 89.4863 82.8592 90.3138 82.2468L97.1652 79.5162L95.5268 77.5303Z" fill="white"/>
<path d="M123.33 77.7785L122.188 80.0127L129.287 83.5377C129.801 83.7859 130.866 84.4115 131.025 84.9278C131.7 86.4769 132.829 86.5331 133.309 86.3676C133.574 86.169 134.034 85.3846 133.756 83.8356C136.298 83.0015 136.371 82.0648 136.089 81.7007C135.957 81.3863 135.374 80.8766 134.103 81.3532C132.832 81.8298 131.389 81.5518 130.827 81.3532L123.33 77.7785Z" fill="white"/>
<path d="M95.5268 77.5303L88.4272 80.3106C88.0215 80.4694 87.0004 80.2444 86.5405 80.112C85.9282 79.781 84.5645 79.1984 84.0085 79.5162C83.4524 79.8339 83.6113 80.4761 83.7602 80.7574C84.0085 81.0553 84.7135 81.8993 85.5476 82.8923C85.1901 84.6796 85.531 85.5898 85.7462 85.8215C86.044 86.0532 86.8186 86.2882 87.5335 85.3747C87.7718 84.342 89.4863 82.8592 90.3138 82.2468L97.1652 79.5162L95.5268 77.5303Z" stroke="black"/>
<path d="M123.33 77.7785L122.188 80.0127L129.287 83.5377C129.801 83.7859 130.866 84.4115 131.025 84.9278C131.7 86.4769 132.829 86.5331 133.309 86.3676C133.574 86.169 134.034 85.3846 133.756 83.8356C136.298 83.0015 136.371 82.0648 136.089 81.7007C135.957 81.3863 135.374 80.8766 134.103 81.3532C132.832 81.8298 131.389 81.5518 130.827 81.3532L123.33 77.7785Z" stroke="black"/>
<path d="M101.733 70.8774L100.938 70.6788V72.2676L101.733 72.764V70.8774Z" fill="white"/>
<path d="M103.272 71.3242L102.229 71.1256V73.0123L103.272 73.3598V71.3242Z" fill="white"/>
<path d="M105.208 71.6718L104.017 71.4732V73.757L105.208 74.0052V71.6718Z" fill="white"/>
<path d="M107.244 72.069L105.804 71.92V74.0052L107.244 74.5017V72.069Z" fill="white"/>
<path d="M109.428 72.069H107.988L108.038 74.7003L109.428 74.8493V72.069Z" fill="white"/>
<path d="M111.514 72.2676H110.173V74.8493H111.514V72.2676Z" fill="white"/>
<path d="M113.648 71.92L112.308 72.069V74.5017L113.648 74.1542V71.92Z" fill="white"/>
<path d="M115.734 71.4732L114.443 71.6718V74.0052L115.734 73.6081V71.4732Z" fill="white"/>
<path d="M117.422 71.1256L116.429 71.3242V73.3598L117.422 73.0123V71.1256Z" fill="white"/>
<path d="M118.613 70.4802L117.968 70.6788V72.5158L118.613 72.069V70.4802Z" fill="white"/>
<path d="M103.272 74.1542L102.229 73.757V75.1471L103.272 75.9415V74.1542Z" fill="white"/>
<path d="M105.208 74.7003L104.017 74.5017V76.438L105.208 76.9841V74.7003Z" fill="white"/>
<path d="M107.244 75.1471L105.804 74.8493V77.3317L107.244 77.7288V75.1471Z" fill="white"/>
<path d="M109.428 75.5443H107.988V77.9274H109.428V75.5443Z" fill="white"/>
<path d="M111.762 75.594H110.322V77.9274H111.762V75.594Z" fill="white"/>
<path d="M113.847 74.8493L112.506 75.1471V77.7288L113.847 77.3317V74.8493Z" fill="white"/>
<path d="M115.734 74.5017L114.641 74.8493V76.9841L115.734 76.438V74.5017Z" fill="white"/>
<path d="M117.422 74.0052L116.677 74.1542L116.578 75.7926L117.422 75.1471V74.0052Z" fill="white"/>
<path d="M90.9592 44.3655C90.7606 48.0196 92.6969 52.1768 93.6898 53.7987C94.2856 52.7263 93.7726 49.5786 93.4416 48.1388C92.1011 42.4789 93.4416 42.4789 93.4416 41.5852C93.8388 43.5215 94.0374 43.7698 95.3282 47.4934C95.9736 53.0043 95.2289 52.905 93.6898 57.9691C92.1507 63.0332 97.5624 64.6716 98.3567 64.6716C99.1511 64.6716 101.336 66.1114 101.485 67.1043C101.634 68.0973 102.229 69.686 103.371 70.1329C104.513 70.5797 105.953 71.2748 111.563 70.9272C116.051 70.6492 117.306 69.2558 117.372 68.5938C117.405 67.7663 117.809 66.0419 119.159 65.7638C124.521 65.0489 126.093 61.8251 126.209 60.3026V58.7138C125.762 57.936 124.829 56.2016 124.67 55.4867C123.836 53.183 123.992 49.4296 124.174 47.8409C124.621 46.1198 125.574 42.2902 125.812 40.7412C126.755 41.6845 126.855 48.9332 126.011 50.9191C125.335 52.5078 125.729 54.0304 126.011 54.593C126.904 52.723 128.761 48.2977 129.039 45.5571C129.139 39.4007 126.408 36.5211 123.032 33.5919C119.656 30.6627 114.194 29.7194 109.677 29.4215C105.159 29.1236 99.0518 31.2584 95.8743 33.9891C92.6969 36.7197 91.2074 39.7979 90.9592 44.3655Z" fill="white" stroke="black"/>
<path d="M102.825 49.5783C98.4958 49.34 97.2811 53.0206 97.2149 54.8907C97.2149 58.1675 97.6121 61.1463 101.882 60.8981C105.298 60.6995 106.714 57.2407 106.996 55.5361C107.409 53.6495 107.154 49.8167 102.825 49.5783Z" fill="black"/>
<path d="M121.145 51.2664C117.968 47.8506 114.79 49.5783 113.599 50.8692C112.655 51.6554 112.258 53.6991 112.258 54.8907C112.506 58.9122 116.28 61.1463 119.358 60.3023C122.436 59.4583 123.032 53.6991 121.145 51.2664Z" fill="black"/>
<path d="M109.825 58.7136C106.807 60.1434 106.118 64.5059 106.152 66.5083C106.234 66.9552 106.628 67.7892 107.542 67.5509C108.684 67.253 109.577 65.3168 109.825 64.3735C110.372 66.2104 111.861 67.6999 112.755 67.3523C113.47 67.0743 113.781 66.409 113.847 66.1111C113.897 64.8699 111.514 59.0115 109.825 58.7136Z" fill="black"/>
<path d="M102.825 49.5783C98.4958 49.34 97.2811 53.0206 97.2149 54.8907C97.2149 58.1675 97.6121 61.1463 101.882 60.8981C105.298 60.6995 106.714 57.2407 106.996 55.5361C107.409 53.6495 107.154 49.8167 102.825 49.5783Z" stroke="black"/>
<path d="M121.145 51.2664C117.968 47.8506 114.79 49.5783 113.599 50.8692C112.655 51.6554 112.258 53.6991 112.258 54.8907C112.506 58.9122 116.28 61.1463 119.358 60.3023C122.436 59.4583 123.032 53.6991 121.145 51.2664Z" stroke="black"/>
<path d="M109.825 58.7136C106.807 60.1434 106.118 64.5059 106.152 66.5083C106.234 66.9552 106.628 67.7892 107.542 67.5509C108.684 67.253 109.577 65.3168 109.825 64.3735C110.372 66.2104 111.861 67.6999 112.755 67.3523C113.47 67.0743 113.781 66.409 113.847 66.1111C113.897 64.8699 111.514 59.0115 109.825 58.7136Z" stroke="black"/>
<path d="M97.2148 66.6077L99.3 67.8489C99.6972 68.6432 99.8958 71.0263 99.8958 73.3598C100.65 75.1074 101.766 76.107 102.229 76.3883C103.421 77.3813 106.906 79.258 111.315 78.8211C115.724 78.3842 118.282 75.2961 119.01 73.8066C119.308 72.7806 119.854 70.3908 119.656 69.0404C119.934 67.7297 121.294 67.1703 121.94 67.0545C121.559 68.908 120.857 73.3697 121.096 76.3883C117.005 83.4979 111.017 84.1169 108.535 83.5376C106.118 82.8095 100.66 80.2708 98.1581 75.9415C98.3964 71.9299 97.43 68.1799 96.9169 66.8063L97.2148 66.6077Z" fill="white"/>
<defs>
<linearGradient id="paint0_linear_6_2" x1="128.423" y1="-7.46043" x2="128.517" y2="131.472" gradientUnits="userSpaceOnUse">
<stop stop-color="#45D74B" stop-opacity="0"/>
<stop offset="0.594176" stop-color="#41D247"/>
</linearGradient>
</defs>
</svg>
